<svg xmlns="http://www.w3.org/2000/svg" viewBox="0 0 48 16" role="img" aria-label="Visa">
  <path fill="#1434CB" d="M18.3 15.5h-3.3l1.3-11.4h3.3l-1.3 11.4zm9.5-11c-.7-.3-1.7-.5-3-.5-3.2 0-5.4 1.7-5.4 4 0 1.7 1.6 2.7 2.8 3.4 1.2.6 1.7 1 1.7 1.7 0 .9-1.1 1.4-2.1 1.4-1.4 0-2.2-.4-3.4-1l-.5-.2-.6 3.1c1 .5 2.5.9 4.1.9 3.5 0 5.7-1.7 5.7-4.3 0-1.4-.9-2.5-2.7-3.5-1.1-.6-1.8-1.1-1.8-1.8 0-.6.7-1.2 2-1.2 1.1 0 1.9.2 2.6.6l.4.2.6-2.9zm8.3-.3h-2.7c-.8 0-1.5.2-1.8 1.1l-5.1 11.3h3.6l.7-1.9h4.4l.4 1.9h3.2l-2.6-12zm-4.4 7.9l1.8-4.8 1 4.8h-2.8zM8.5 1.5L5.1 12.9l-.4-1.7C4.3 7.4 2.1 4.6 0 3.3l3.3 12h3.7L14.9 1.5H8.5z"/>
</svg>
